<svg xmlns="http://www.w3.org/2000/svg" width="24" height="24" viewBox="0 0 24 24">
  <path fill="#0085FF" d="M0 12c0-6.63 5.37-12 12-12h0c6.63 0 12 5.37 12 12v0c0 6.63-5.37 12-12 12h0c-6.63 0-12-5.37-12-12z"/>
  <path fill="#FFFFFF" d="M17.29 10.26C17.53 8.67 16.31 7.82 14.65 7.25L15.19 5.11 13.87 4.78 13.35 6.87C13 6.79 12.65 6.7 12.29 6.62L12.82 4.52 11.5 4.19 10.96 6.34C10.68 6.28 10.4 6.21 10.12 6.14L10.13 6.14 8.31 5.69 7.96 7.08C7.96 7.08 8.94 7.31 8.92 7.32 9.45 7.45 9.55 7.8 9.53 8.08L8.91 10.53C8.95 10.54 9 10.55 9.05 10.57 9.01 10.56 8.96 10.55 8.91 10.54L8.05 13.97C7.99 14.13 7.82 14.37 7.45 14.28 7.46 14.29 6.49 14.04 6.49 14.04L5.84 15.54 7.55 15.96C7.87 16.04 8.18 16.12 8.49 16.2L7.94 18.37 9.26 18.7 9.8 16.55C10.16 16.65 10.51 16.74 10.85 16.82L10.31 18.96 11.63 19.29 12.17 17.12C14.42 17.54 16.11 17.37 16.82 15.35 17.39 13.73 16.79 12.79 15.61 12.18 16.47 11.98 17.12 11.42 17.29 10.26ZM14.28 14.45C13.87 16.07 11.12 15.2 10.23 14.98L10.95 12.1C11.84 12.32 14.71 12.76 14.28 14.45ZM14.69 10.24C14.32 11.71 12.03 10.96 11.28 10.78L11.94 8.17C12.68 8.35 15.07 8.7 14.69 10.24Z"/>
</svg>
