<svg preserveAspectRatio="none" width="100%" height="100%" overflow="visible" style="display: block;" viewBox="0 0 21 21" fill="none" xmlns="http://www.w3.org/2000/svg">
<g id="ArrowsOutCardinal">
<path id="Vector (Stroke)" fill-rule="evenodd" clip-rule="evenodd" d="M7.31805 17.068C7.61094 16.7752 8.08581 16.7752 8.37871 17.068L10.5 19.1893L12.6213 17.068C12.9142 16.7752 13.3891 16.7752 13.682 17.068C13.9748 17.3609 13.9748 17.8358 13.682 18.1287L11.0303 20.7803C10.7374 21.0732 10.2626 21.0732 9.96967 20.7803L7.31805 18.1287C7.02515 17.8358 7.02515 17.3609 7.31805 17.068Z" fill="white"/>
<path id="Vector (Stroke)_2" fill-rule="evenodd" clip-rule="evenodd" d="M10.5 12.75C10.9142 12.75 11.25 13.0858 11.25 13.5V20.25C11.25 20.6642 10.9142 21 10.5 21C10.0858 21 9.75 20.6642 9.75 20.25V13.5C9.75 13.0858 10.0858 12.75 10.5 12.75Z" fill="white"/>
<path id="Vector (Stroke)_3" fill-rule="evenodd" clip-rule="evenodd" d="M10.5 0C10.6989 0 10.8897 0.0790177 11.0303 0.21967L13.682 2.87129C13.9748 3.16419 13.9748 3.63906 13.682 3.93196C13.3891 4.22485 12.9142 4.22485 12.6213 3.93195L10.5 1.81066L8.37871 3.93195C8.08581 4.22485 7.61094 4.22485 7.31805 3.93196C7.02515 3.63906 7.02515 3.16419 7.31805 2.87129L9.96967 0.21967C10.1103 0.0790177 10.3011 0 10.5 0Z" fill="white"/>
<path id="Vector (Stroke)_4" fill-rule="evenodd" clip-rule="evenodd" d="M10.5 0C10.9142 0 11.25 0.335786 11.25 0.75V7.5C11.25 7.91421 10.9142 8.25 10.5 8.25C10.0858 8.25 9.75 7.91421 9.75 7.5V0.75C9.75 0.335786 10.0858 0 10.5 0Z" fill="white"/>
<path id="Vector (Stroke)_5" fill-rule="evenodd" clip-rule="evenodd" d="M3.93196 7.31805C4.22485 7.61094 4.22485 8.08581 3.93195 8.37871L1.81066 10.5L3.93195 12.6213C4.22485 12.9142 4.22485 13.3891 3.93196 13.682C3.63906 13.9748 3.16419 13.9748 2.87129 13.682L0.21967 11.0303C0.0790177 10.8897 0 10.6989 0 10.5C0 10.3011 0.0790177 10.1103 0.21967 9.96967L2.87129 7.31805C3.16419 7.02515 3.63906 7.02515 3.93196 7.31805Z" fill="white"/>
<path id="Vector (Stroke)_6" fill-rule="evenodd" clip-rule="evenodd" d="M0 10.5C0 10.0858 0.335786 9.75 0.75 9.75H7.5C7.91421 9.75 8.25 10.0858 8.25 10.5C8.25 10.9142 7.91421 11.25 7.5 11.25H0.75C0.335786 11.25 0 10.9142 0 10.5Z" fill="white"/>
<path id="Vector (Stroke)_7" fill-rule="evenodd" clip-rule="evenodd" d="M17.068 7.31805C17.3609 7.02515 17.8358 7.02515 18.1287 7.31805L20.7803 9.96967C21.0732 10.2626 21.0732 10.7374 20.7803 11.0303L18.1287 13.682C17.8358 13.9748 17.3609 13.9748 17.068 13.682C16.7752 13.3891 16.7752 12.9142 17.068 12.6213L19.1893 10.5L17.068 8.37871C16.7752 8.08581 16.7752 7.61094 17.068 7.31805Z" fill="white"/>
<path id="Vector (Stroke)_8" fill-rule="evenodd" clip-rule="evenodd" d="M12.75 10.5C12.75 10.0858 13.0858 9.75 13.5 9.75H20.25C20.6642 9.75 21 10.0858 21 10.5C21 10.9142 20.6642 11.25 20.25 11.25H13.5C13.0858 11.25 12.75 10.9142 12.75 10.5Z" fill="white"/>
</g>
</svg>
