<svg width="24" height="24" viewBox="0 0 24 24" fill="none" xmlns="http://www.w3.org/2000/svg">
  <path opacity="0.2" d="M8.73433 11.5156C8.15618 10.0735 8.09367 8.47605 8.55738 6.9932C9.02108 5.51034 9.98256 4.23307 11.2793 3.37727C12.576 2.52148 14.1285 2.13967 15.6742 2.29636C17.22 2.45306 18.6642 3.13865 19.7628 4.23726C20.8614 5.33588 21.547 6.78012 21.7037 8.32586C21.8604 9.87161 21.4786 11.4241 20.6228 12.7208C19.767 14.0175 18.4897 14.979 17.0069 15.4427C15.524 15.9064 13.9265 15.8439 12.4844 15.2657L12.4845 15.2656L11.25 16.5001H9V18.7501H6.75V21.0001H3V17.2501L8.7345 11.5156L8.73433 11.5156Z" fill="white"/>
  <path d="M16.875 8.25C17.4963 8.25 18 7.74632 18 7.125C18 6.50368 17.4963 6 16.875 6C16.2537 6 15.75 6.50368 15.75 7.125C15.75 7.74632 16.2537 8.25 16.875 8.25Z" fill="white"/>
  <path fill-rule="evenodd" clip-rule="evenodd" d="M15.5986 3.04254C14.2247 2.90327 12.8449 3.24262 11.6924 4.00324C10.5399 4.76386 9.68533 5.89909 9.27319 7.21704C8.86291 8.52905 8.91612 9.94202 9.42355 11.2192C9.543 11.4966 9.48526 11.8255 9.26483 12.0459L3.75 17.5607V20.2501H6V18.7501C6 18.3358 6.33579 18.0001 6.75 18.0001H8.25V16.5001C8.25 16.0858 8.58579 15.7501 9 15.7501H10.9393L11.9541 14.7353C12.174 14.5154 12.5021 14.4571 12.7795 14.576C14.0571 15.0839 15.4705 15.1373 16.783 14.7269C18.101 14.3147 19.2362 13.4602 19.9968 12.3077C20.7574 11.1551 21.0968 9.77535 20.9575 8.40151C20.8183 7.02766 20.2089 5.74403 19.2325 4.7676C18.256 3.79116 16.9724 3.18181 15.5986 3.04254ZM12.6776 16.1331C14.152 16.6123 15.7432 16.6237 17.2307 16.1585C18.8785 15.6432 20.2978 14.5748 21.2487 13.1339C22.1997 11.693 22.624 9.96788 22.4499 8.25023C22.2758 6.53258 21.5139 4.92772 20.2931 3.70694C19.0724 2.48615 17.4675 1.72431 15.7499 1.55019C14.0322 1.37606 12.3071 1.80034 10.8662 2.75131C9.42524 3.70227 8.35684 5.12159 7.84156 6.76935C7.37641 8.25682 7.38776 9.84808 7.86698 11.3224L2.46967 16.7197C2.32902 16.8604 2.25 17.0511 2.25 17.2501V21.0001C2.25 21.4143 2.58579 21.7501 3 21.7501H6.75C7.16421 21.7501 7.5 21.4143 7.5 21.0001V19.5001H9C9.41421 19.5001 9.75 19.1643 9.75 18.7501V17.2501H11.25C11.4489 17.2501 11.6397 17.171 11.7803 17.0304L12.6776 16.1331Z" fill="white"/>
</svg>
