<svg width="14" height="13" viewBox="0 0 13.1268 12.4996" fill="none" xmlns="http://www.w3.org/2000/svg">
<path opacity="0.2" d="M6.56327 8.50001C8.77241 8.50001 10.5633 6.70915 10.5633 4.50001C10.5633 2.29087 8.77241 0.500009 6.56327 0.500009C4.35413 0.500009 2.56327 2.29087 2.56327 4.50001C2.56327 6.70915 4.35413 8.50001 6.56327 8.50001Z" fill="#000000"/>
<path fill-rule="evenodd" clip-rule="evenodd" d="M9.06327 2.00001C9.06327 1.72387 9.28713 1.50001 9.56327 1.50001H12.5633C12.8394 1.50001 13.0633 1.72387 13.0633 2.00001C13.0633 2.27615 12.8394 2.50001 12.5633 2.50001H9.56327C9.28713 2.50001 9.06327 2.27615 9.06327 2.00001Z" fill="#000000"/>
<path fill-rule="evenodd" clip-rule="evenodd" d="M6.56334 9.00001C5.42225 9 4.30124 9.30027 3.31295 9.87067C2.32465 10.4411 1.50385 11.2615 0.933024 12.2495C0.794884 12.4887 0.489065 12.5705 0.249958 12.4324C0.0108519 12.2942 -0.0709974 11.9884 0.0671429 11.7493C0.725762 10.6093 1.67279 9.66269 2.81308 9.00457C3.95337 8.34645 5.24677 8 6.56335 8.00001C7.87993 8.00002 9.17332 8.3465 10.3136 9.00465C11.4539 9.66279 12.4009 10.6094 13.0595 11.7494C13.1976 11.9885 13.1158 12.2944 12.8766 12.4325C12.6375 12.5706 12.3317 12.4888 12.1936 12.2497C11.6228 11.2616 10.802 10.4412 9.81371 9.87074C8.82542 9.30032 7.70443 9.00002 6.56334 9.00001Z" fill="#000000"/>
<path fill-rule="evenodd" clip-rule="evenodd" d="M7.37191 1.09377C6.66559 0.926796 5.92482 0.983816 5.25238 1.25692C4.57994 1.53002 4.00918 2.00566 3.6193 2.61784C3.22943 3.23002 3.03978 3.94837 3.07667 4.67322C3.11355 5.39807 3.37515 6.09346 3.82515 6.6629C4.27515 7.23233 4.89124 7.64758 5.58794 7.85101C6.28463 8.05444 7.02736 8.03597 7.71308 7.79816C8.3988 7.56034 8.99349 7.11498 9.41462 6.52388C9.83576 5.93277 10.0625 5.22524 10.0633 4.49945C10.0636 4.22331 10.2877 3.9997 10.5638 4.00001C10.84 4.00032 11.0636 4.22442 11.0633 4.50056C11.0622 5.43398 10.7707 6.34392 10.2291 7.10413C9.68745 7.86434 8.92263 8.4371 8.04075 8.74295C7.15886 9.0488 6.20364 9.07255 5.30764 8.81093C4.41165 8.5493 3.6193 8.01526 3.04056 7.28292C2.46183 6.55058 2.1254 5.65625 2.07796 4.72404C2.03052 3.79183 2.27443 2.86798 2.77583 2.08067C3.27724 1.29336 4.01128 0.681647 4.87609 0.330415C5.7409 -0.0208161 6.6936 -0.0941478 7.60197 0.120596C7.87071 0.184126 8.03706 0.45348 7.97353 0.722215C7.91 0.99095 7.64064 1.1573 7.37191 1.09377Z" fill="#000000"/>
</svg>
